<svg xmlns="http://www.w3.org/2000/svg" viewBox="0 0 207 31">
  <path fill="#060E29" d="M.434 8.678a1.03 1.03 0 0 1 .46-.232c.153-.031.307-.048.463-.05h2.525a1.098 1.098 0 0 1 .89.398c.102.125.184.264.244.414.06.155.119.31.176.48l.352 1.455c.195-.38.437-.737.721-1.059a5.136 5.136 0 0 1 1.191-.991 6.958 6.958 0 0 1 1.72-.737 8.478 8.478 0 0 1 2.34-.289 8.303 8.303 0 0 1 1.922.207c.551.129 1.08.335 1.572.612a6.15 6.15 0 0 1 1.3.993c.407.414.776.864 1.1 1.345.262-.4.58-.76.943-1.073a7.6 7.6 0 0 1 1.502-1.026 9.527 9.527 0 0 1 1.946-.76 8.457 8.457 0 0 1 2.282-.298 7.264 7.264 0 0 1 3.34.727 6.82 6.82 0 0 1 2.392 1.984 8.715 8.715 0 0 1 1.415 2.937 13.3 13.3 0 0 1 .471 3.587v10.861c.026.34-.072.678-.275.953a1.088 1.088 0 0 1-.882.325h-3.872a1.512 1.512 0 0 1-.99-.241 1.248 1.248 0 0 1-.27-.933V17.305a3.81 3.81 0 0 0-.225-1.327 3.375 3.375 0 0 0-.63-1.07 2.829 2.829 0 0 0-.98-.713 3.146 3.146 0 0 0-1.284-.258 3.018 3.018 0 0 0-1.207.248 3.249 3.249 0 0 0-1.007.689c-.3.306-.536.666-.697 1.06a3.507 3.507 0 0 0-.259 1.368v10.861c.026.34-.073.678-.277.953a1.085 1.085 0 0 1-.881.325h-3.878a1.508 1.508 0 0 1-.988-.241 1.25 1.25 0 0 1-.269-.933V17.305a4.074 4.074 0 0 0-.21-1.327 3.216 3.216 0 0 0-.604-1.07 2.78 2.78 0 0 0-.954-.713 3.037 3.037 0 0 0-1.269-.258 3.07 3.07 0 0 0-1.183.24c-.387.161-.74.392-1.04.681a3.79 3.79 0 0 0-.772 1.054 3.498 3.498 0 0 0-.362 1.359v10.945c0 .193-.037.383-.108.563a.88.88 0 0 1-.329.432 1.52 1.52 0 0 1-.41.183 1.8 1.8 0 0 1-.445.05H1.357a1.361 1.361 0 0 1-1.04-.348 1.322 1.322 0 0 1-.315-.933V9.623c-.003-.202.046-.4.141-.578.09-.172.227-.316.395-.415l-.104.048Zm33.612-7.396a1.33 1.33 0 0 1 .304-.988 1.32 1.32 0 0 1 .943-.289h3.893c.338-.014.672.088.943.29a1.211 1.211 0 0 1 .36.987v3.234a1.19 1.19 0 0 1-.093.431 1.81 1.81 0 0 1-.261.448 1.438 1.438 0 0 1-.41.357 1.083 1.083 0 0 1-.546.14h-3.888c-.827 0-1.24-.459-1.24-1.376V1.282h-.005Zm0 8.39c-.008-.33.1-.651.304-.912a1.12 1.12 0 0 1 .943-.38h3.842c.15.002.299.034.437.091.16.063.308.153.437.266.135.117.252.254.344.407.096.16.145.343.142.53v18.488a1.212 1.212 0 0 1-.352.952c-.28.233-.64.35-1.006.325h-3.846c-.827 0-1.24-.426-1.24-1.277l-.005-18.49ZM46.027 22.89c.293.291.623.544.98.753a7.53 7.53 0 0 0 1.016.499 6.1 6.1 0 0 0 .857.273c.164.043.332.07.501.082.214 0 .484-.009.814-.024a4.32 4.32 0 0 0 .943-.156c.29-.075.559-.214.786-.407a.997.997 0 0 0 .325-.795 1.31 1.31 0 0 0-.184-.738 1.507 1.507 0 0 0-.537-.466 4.462 4.462 0 0 0-.864-.34l-1.15-.347a13.974 13.974 0 0 1-3.322-1.276 7.439 7.439 0 0 1-2.071-1.667 5.402 5.402 0 0 1-1.066-1.982c-.2-.726-.3-1.477-.294-2.23a5.588 5.588 0 0 1 .553-2.502 5.558 5.558 0 0 1 1.572-1.933 7.502 7.502 0 0 1 2.449-1.243 10.762 10.762 0 0 1 3.17-.438c.664-.004 1.327.055 1.98.175a7.894 7.894 0 0 1 1.762.547c.58.261 1.128.584 1.636.962.566.422 1.096.89 1.584 1.398.167.168.27.388.294.622a.852.852 0 0 1-.377.621c-.437.356-.852.702-1.25 1.046a25.08 25.08 0 0 0-1.232 1.145.947.947 0 0 1-.404.206.827.827 0 0 1-.383-.009 1.137 1.137 0 0 1-.352-.166 1.381 1.381 0 0 1-.302-.283 2.948 2.948 0 0 0-1.342-.872 4.938 4.938 0 0 0-1.414-.223 2.61 2.61 0 0 0-1.308.281.876.876 0 0 0-.453.864.921.921 0 0 0 .327.671c.216.171.46.304.723.39a6.7 6.7 0 0 0 .905.24c.315.061.612.131.882.207a26.22 26.22 0 0 1 2.768 1.046 8.43 8.43 0 0 1 2.18 1.384 5.72 5.72 0 0 1 1.435 1.966 6.81 6.81 0 0 1 .512 2.785 6.336 6.336 0 0 1-.662 2.935 6.3 6.3 0 0 1-1.82 2.175 8.356 8.356 0 0 1-2.74 1.344c-1.11.317-2.26.474-3.416.466a12.756 12.756 0 0 1-2.114-.182 10.14 10.14 0 0 1-2.08-.59 9.306 9.306 0 0 1-1.91-1.044 7.456 7.456 0 0 1-1.611-1.554 1.719 1.719 0 0 1-.279-.49 1.363 1.363 0 0 1-.083-.506c.004-.157.038-.312.1-.456a.896.896 0 0 1 .295-.356l2.162-2.138a.768.768 0 0 1 .714-.234c.301.132.572.324.795.563Zm17.75 0c.292.292.621.546.98.753a7.59 7.59 0 0 0 1.016.499c.278.112.564.203.856.273.164.043.332.07.502.082.212 0 .484-.009.814-.024.319-.017.635-.07.943-.156.29-.075.558-.214.785-.407a1 1 0 0 0 .327-.795 1.294 1.294 0 0 0-.185-.738 1.484 1.484 0 0 0-.536-.466 4.456 4.456 0 0 0-.864-.339c-.34-.104-.724-.22-1.15-.348a13.943 13.943 0 0 1-3.319-1.276 7.496 7.496 0 0 1-2.073-1.666 5.432 5.432 0 0 1-1.064-1.983 8.128 8.128 0 0 1-.301-2.24 5.588 5.588 0 0 1 .553-2.503 5.572 5.572 0 0 1 1.571-1.933 7.49 7.49 0 0 1 2.45-1.243 10.767 10.767 0 0 1 3.17-.438c.663-.003 1.327.055 1.98.176a7.877 7.877 0 0 1 1.761.547c.579.26 1.127.583 1.635.961.566.423 1.096.89 1.584 1.399.167.168.27.387.294.621a.85.85 0 0 1-.377.621c-.436.356-.852.703-1.25 1.046a25.74 25.74 0 0 0-1.233 1.145.946.946 0 0 1-.404.207.837.837 0 0 1-.387-.01 1.152 1.152 0 0 1-.352-.166 1.353 1.353 0 0 1-.3-.283 2.943 2.943 0 0 0-1.342-.871 4.92 4.92 0 0 0-1.415-.224 2.609 2.609 0 0 0-1.31.281.874.874 0 0 0-.452.864.922.922 0 0 0 .327.671c.215.171.46.303.722.39.295.101.598.182.905.241.314.06.611.13.88.207.942.296 1.866.645 2.768 1.045a8.5 8.5 0 0 1 2.183 1.385 5.75 5.75 0 0 1 1.433 1.965c.364.883.538 1.832.51 2.785a6.337 6.337 0 0 1-.66 2.935 6.302 6.302 0 0 1-1.822 2.175 8.34 8.34 0 0 1-2.743 1.344 12.105 12.105 0 0 1-3.412.466 12.733 12.733 0 0 1-2.114-.181 10.14 10.14 0 0 1-2.08-.59 9.32 9.32 0 0 1-1.914-1.045 7.429 7.429 0 0 1-1.61-1.553 1.69 1.69 0 0 1-.277-.49 1.3 1.3 0 0 1 .015-.963.895.895 0 0 1 .294-.356l2.163-2.138a.769.769 0 0 1 .714-.234c.308.133.584.329.81.575Zm32.411 4.031c-.975.887-2.1 1.597-3.325 2.097a10.22 10.22 0 0 1-3.908.754 11.48 11.48 0 0 1-7.936-3.126 11.008 11.008 0 0 1-2.45-3.458 10.328 10.328 0 0 1-.904-4.329 11.096 11.096 0 0 1 1.385-5.39c.441-.795.982-1.533 1.61-2.196a10.22 10.22 0 0 1 4.669-2.83c.943-.268 1.92-.402 2.903-.397.912-.002 1.821.121 2.7.365a10.66 10.66 0 0 1 4.563 2.62c.628.61 1.18 1.291 1.643 2.032a9.774 9.774 0 0 1 1.068 2.355 8.99 8.99 0 0 1 .377 2.577c0 .574-.01 1.046-.025 1.41 0 .309-.09.611-.26.871a1.276 1.276 0 0 1-.785.446 7.692 7.692 0 0 1-1.604.124H83.84c.084.636.317 1.244.68 1.775.315.451.717.838 1.182 1.137.439.277.92.481 1.426.604a6.17 6.17 0 0 0 1.425.182 6.6 6.6 0 0 0 1.242-.124 9.054 9.054 0 0 0 1.234-.333 6.94 6.94 0 0 0 1.09-.48 3.72 3.72 0 0 0 .797-.57c.145-.12.3-.23.462-.325a.815.815 0 0 1 .41-.108.8.8 0 0 1 .444.155c.184.128.356.272.512.432l1.778 1.988c.105.112.185.245.236.389.033.115.05.235.048.356a.914.914 0 0 1-.184.573c-.123.16-.27.304-.433.424Zm-8.07-13.815c-.435 0-.866.088-1.266.258a4.773 4.773 0 0 0-1.15.688 6.163 6.163 0 0 0-1.66 2.09h8.575a9.724 9.724 0 0 0-.763-1.195 5.216 5.216 0 0 0-.942-.961 4.137 4.137 0 0 0-1.21-.648 4.955 4.955 0 0 0-1.583-.232Zm27.475 14.26c-.323.318-.667.615-1.03.887a8.628 8.628 0 0 1-1.257.79 7.7 7.7 0 0 1-1.457.564 6.24 6.24 0 0 1-1.654.214 10.307 10.307 0 0 1-4.201-.845 10.066 10.066 0 0 1-3.3-2.313 10.586 10.586 0 0 1-2.163-3.457 12.143 12.143 0 0 1 0-8.567 10.69 10.69 0 0 1 2.163-3.449 9.97 9.97 0 0 1 3.3-2.304 10.397 10.397 0 0 1 4.201-.837 8.385 8.385 0 0 1 1.687.155 6.012 6.012 0 0 1 2.548 1.17c.354.28.688.584.998.912V3.372a1.29 1.29 0 0 1 .326-.895 1.253 1.253 0 0 1 .981-.365h3.772c.159.003.315.033.462.09.162.062.313.15.447.258.134.11.244.245.323.398.086.158.13.335.128.514v24.791c0 .852-.453 1.277-1.36 1.277h-3.285a1.294 1.294 0 0 1-.52-.082.817.817 0 0 1-.314-.242 1.7 1.7 0 0 1-.226-.396c-.07-.156-.158-.345-.249-.557l-.32-.797Zm-9.814-8.439a5.98 5.98 0 0 0 .346 2.048 4.83 4.83 0 0 0 .98 1.65 4.704 4.704 0 0 0 3.524 1.51 5.33 5.33 0 0 0 2.018-.382 5.13 5.13 0 0 0 1.652-1.052 5.226 5.226 0 0 0 1.613-3.542v-.232a5.23 5.23 0 0 0-.404-2.02 5.29 5.29 0 0 0-2.793-2.845 5.167 5.167 0 0 0-2.089-.422 4.615 4.615 0 0 0-1.988.423 4.652 4.652 0 0 0-1.534 1.152 5.185 5.185 0 0 0-.981 1.692 6.044 6.044 0 0 0-.344 2.02Zm19.143 5.738a.747.747 0 0 1 .186-.53.713.713 0 0 1 .556-.198h4.439a.81.81 0 0 1 .528.198.651.651 0 0 1 .247.53v4.013a.806.806 0 0 1-.195.53.705.705 0 0 1-.58.233h-4.437c-.495 0-.742-.253-.742-.763v-4.013h-.002Zm21.941-1.708c.132-.1.283-.17.445-.207a1.91 1.91 0 0 1 .328-.041c.181-.003.359.037.521.116.202.122.369.292.487.496l1.878 2.796c.059.095.112.195.157.297a.67.67 0 0 1 .076.266.836.836 0 0 1-.242.621c-.161.158-.338.3-.529.421a12.649 12.649 0 0 1-3.011 1.518c-1.111.384-2.28.577-3.458.572a11.034 11.034 0 0 1-2.91-.381 10.68 10.68 0 0 1-2.608-1.088 11.192 11.192 0 0 1-2.214-1.691 10.416 10.416 0 0 1-1.713-2.197c-.477-.822-.846-1.7-1.101-2.613a11.105 11.105 0 0 1 0-5.862c.253-.914.623-1.792 1.101-2.613a10.55 10.55 0 0 1 1.713-2.19 10.896 10.896 0 0 1 4.822-2.759 10.987 10.987 0 0 1 2.91-.38 11.31 11.31 0 0 1 3.38.48c1.04.323 2.023.804 2.913 1.426l-.05-.05c.228.127.427.3.585.505a1.157 1.157 0 0 1 .019 1.335l-1.493 2.504a1.345 1.345 0 0 1-1.141.813 1.133 1.133 0 0 1-.368-.075 2.046 2.046 0 0 1-.489-.258 7.703 7.703 0 0 0-1.584-.786 5.273 5.273 0 0 0-1.805-.31 4.47 4.47 0 0 0-1.942.422 4.56 4.56 0 0 0-1.518 1.153 5.383 5.383 0 0 0-.981 1.692 6.052 6.052 0 0 0 0 4.07c.217.607.55 1.167.981 1.65.434.48.968.863 1.564 1.123a4.63 4.63 0 0 0 1.893.387 4.82 4.82 0 0 0 1.795-.332 8.14 8.14 0 0 0 1.589-.83Zm28.872-14.279c.131-.115.29-.194.46-.232.152-.031.307-.048.463-.05h2.533c.18-.004.358.033.52.11.143.068.269.167.37.288.102.125.184.264.243.414.062.155.12.31.176.48l.354 1.456a5.064 5.064 0 0 1 1.911-2.05 6.952 6.952 0 0 1 1.721-.738 8.464 8.464 0 0 1 2.34-.289 8.328 8.328 0 0 1 1.923.207 5.958 5.958 0 0 1 2.871 1.605 9.51 9.51 0 0 1 1.1 1.345c.263-.4.58-.76.943-1.073a7.62 7.62 0 0 1 1.503-1.026 9.525 9.525 0 0 1 1.945-.76 8.462 8.462 0 0 1 2.283-.298 7.254 7.254 0 0 1 3.338.727 6.838 6.838 0 0 1 2.373 1.986 8.715 8.715 0 0 1 1.415 2.936c.321 1.17.479 2.376.471 3.588v10.861a1.41 1.41 0 0 1-.278.952 1.09 1.09 0 0 1-.882.325h-3.872c-.349.037-.7-.049-.992-.24a1.251 1.251 0 0 1-.269-.933V17.307a3.823 3.823 0 0 0-.226-1.327 3.401 3.401 0 0 0-.629-1.07 2.845 2.845 0 0 0-.981-.714 3.134 3.134 0 0 0-1.284-.258 3.014 3.014 0 0 0-1.208.25 3.2 3.2 0 0 0-1.008.687 3.3 3.3 0 0 0-.695 1.062 3.502 3.502 0 0 0-.259 1.367v10.861a1.42 1.42 0 0 1-.278.952 1.09 1.09 0 0 1-.882.325h-3.874a1.514 1.514 0 0 1-.99-.24 1.25 1.25 0 0 1-.267-.933V17.307a4.126 4.126 0 0 0-.209-1.327 3.246 3.246 0 0 0-.605-1.07 2.776 2.776 0 0 0-.958-.714 3.014 3.014 0 0 0-1.266-.258 3.1 3.1 0 0 0-1.184.241 3.394 3.394 0 0 0-1.04.68 3.778 3.778 0 0 0-.77 1.054 3.488 3.488 0 0 0-.362 1.36v10.945a1.529 1.529 0 0 1-.11.562.905.905 0 0 1-.327.432 1.57 1.57 0 0 1-.413.183 1.768 1.768 0 0 1-.443.05h-3.791a1.19 1.19 0 0 1-1-.305 1.164 1.164 0 0 1-.358-.972V9.623a1.2 1.2 0 0 1 .141-.578c.09-.172.226-.315.393-.415l-.08.048Z"/>
  <path fill="#fff" fill-rule="evenodd" d="M161.799 7.958c2.204 0 4.36.647 6.193 1.857a11.058 11.058 0 0 1 4.107 4.945 10.909 10.909 0 0 1 .636 6.367 10.99 10.99 0 0 1-3.049 5.643 11.19 11.19 0 0 1-5.706 3.018 11.27 11.27 0 0 1-6.441-.623 11.12 11.12 0 0 1-5.006-4.055 10.91 10.91 0 0 1-1.037-10.34 11.008 11.008 0 0 1 2.416-3.58 11.16 11.16 0 0 1 3.618-2.39 11.264 11.264 0 0 1 4.269-.84Z" clip-rule="evenodd"/>
  <path fill="#10BABB" d="m165.205 19.187-1.479 1.493-3.929-3.965h3.223V15.3h-5.606v5.664h1.402v-3.262l4.905 4.957 2.461-2.486-.977-.985Z"/>
</svg>
