<svg xmlns="http://www.w3.org/2000/svg" fill="none" viewBox="0 0 69 50">
  <path fill="#2A43D4" fill-rule="evenodd" d="M67.416 21.69c.084-.16.132-.337.138-.513a.575.575 0 0 1 .131-.375c.266-.3.463-1.046.425-1.572-.039-.526-.418-1.61-1.065-3.06-.394-.888-1.678-3.263-2.056-3.8a29.795 29.795 0 0 1-.73-1.148c-.273-.45-.545-.823-.6-.835-.056-.01-.204-.223-.322-.48-.344-.75-1.664-2.707-1.84-2.728-.054-.007-.07-.044-.037-.082.054-.06-.137-.37-.736-1.204a9.259 9.259 0 0 1-.256-.378c-.549-.833-.996-1.355-1.127-1.308-.07.024-.106-.05-.086-.183a.361.361 0 0 0-.021-.178.328.328 0 0 0-.104-.14.437.437 0 0 1-.187-.221c-.018-.07-.21-.319-.428-.554a12.6 12.6 0 0 1-.58-.665c-.55-.697-1.087-1.217-1.165-1.129-.045.052-.149.035-.229-.036-.08-.071-.18-.094-.222-.045-.043.048-.135.032-.209-.033-.176-.157-.5-.152-.746.011-.154.103-.173.18-.081.337.11.19.103.198-.079.14-.182-.056-.191-.05-.117.108.12.258.5.56.583.467a.115.115 0 0 1 .07-.042.1.1 0 0 1 .04.002c.014.003.026.01.036.018.039.034.009.098-.067.142-.096.053-.072.166.072.366.117.157.187.317.15.358-.063.072-.775-.361-1.278-.777-.253-.211-.277-.208-.58.092-.303.3-.312.319-.097.703.317.565.286.64-.147.369-.434-.272-.513-.224-.788.402-.232.527-.243.656-.068.822l.157.148-.24-.061c-.422-.1-.476.174-.147.72l.24.396-.277-.094c-.153-.053-.3-.068-.329-.036-.075.085.309.753 1.265 2.2 1.057 1.6 2.475 3.97 2.478 4.139 0 .073-.221.007-.516-.154-1.667-.908-4.654-2.04-6.562-2.488-2.27-.533-5.14-.784-7.12-.623-.427.035-.792.047-.81.027-.018-.02-.711.017-1.537.085a37.202 37.202 0 0 0-4.94.811c-1.129.262-4.995 1.555-5.147 1.728-.191.092-.39.166-.591.22-.268.077-.528.19-.772.334a1.705 1.705 0 0 1-.503.233c-.672.163-4.08 2.065-5.683 3.169-.584.403-1.208.832-1.388.953a5.446 5.446 0 0 0-.565.444 4.628 4.628 0 0 1-.59.443 4.774 4.774 0 0 0-.688.553 3.163 3.163 0 0 1-.52.431.815.815 0 0 0-.288.29c-.054.104-.15.19-.205.183-.055-.007-.155.078-.223.187a.636.636 0 0 1-.255.244 1.605 1.605 0 0 0-.402.315 6.24 6.24 0 0 1-.625.537c-.873.647-4.376 4.341-4.232 4.468.052.047.014.098-.116.152-.31.13-1.611 1.796-3.273 4.19a36.69 36.69 0 0 0-1.79 2.85c-.41.716-.787 1.363-.837 1.438-.168.251-.966 1.675-1.335 2.38-.2.383-.51.96-.689 1.28-.178.323-.442.842-.581 1.151-.14.31-.367.77-.497 1.016-.359.678-.8 1.673-.806 1.822a.533.533 0 0 1-.124.265c-.14.159-.797 1.824-1.19 3.02-.423 1.291-.78 3.398-.725 4.294.048.742.073.806.386 1 .475.293.626.27.816-.126.381-.787.501-.955.689-.959.294-.005.43-.236.77-1.306a21.85 21.85 0 0 1 .748-1.947c.364-.809 1.684-3.354 2.132-4.114.078-.13.202-.35.276-.485.073-.134.197-.352.277-.481.08-.13.227-.39.33-.58.101-.19.25-.45.329-.58.346-.567 1.457-2.475 1.675-2.88.131-.242.295-.523.363-.622a.659.659 0 0 0 .111-.193c.047-.1.105-.194.174-.282.105-.148.312-.455.463-.68.15-.226.412-.585.582-.795.17-.21.641-.805 1.049-1.324l1.076-1.373c.127-.155.247-.316.359-.483.025-.064.338-.383.571-.584.111-.107.2-.234.263-.373.06-.14.147-.23.218-.22.136.017.346-.365.303-.55-.02-.084.024-.13.156-.164.101-.021.274-.167.385-.326.111-.159.224-.266.252-.242.028.025.132-.034.226-.127.093-.093.34-.334.544-.53.203-.195.326-.36.27-.366-.055-.005-.019-.094.076-.195.095-.1.149-.122.118-.047-.106.277.054.212.37-.145.178-.202.297-.391.263-.42-.034-.03.052-.067.189-.082.157-.02.228-.065.191-.133-.036-.069-.021-.118.022-.133a2.76 2.76 0 0 0 .39-.293c.277-.236.301-.298.22-.563l-.094-.3.206.273c.17.226.218.245.273.11a.32.32 0 0 1 .224-.18c.11-.013.175-.114.22-.35.036-.183.078-.275.096-.205.017.07.065.083.11.033.044-.05.091-.044.106.014.014.058.163.021.33-.08.265-.16.279-.182.106-.179-.173.003-.174-.027-.056-.178l.207-.271a.112.112 0 0 1 .067-.042.095.095 0 0 1 .074.015c.104.079.324-.016 1.08-.459.35-.204.648-.417.659-.477.01-.06.179-.182.372-.276a57.32 57.32 0 0 0 1.796-.994c1.887-1.075 2.748-1.532 2.911-1.56a.545.545 0 0 0 .264-.165c.072-.08.169-.113.216-.071.048.042.085.034.085-.017 0-.052.144-.136.322-.188.178-.051.688-.246 1.133-.432 1.422-.596 1.51-.632 1.664-.647a.797.797 0 0 0 .363-.254c.15-.17.228-.198.272-.106.088.184.99-.175.944-.376-.026-.101.001-.138.095-.126a.197.197 0 0 1 .157.122c.031.121.7-.005.729-.138.01-.047.128-.08.26-.072.134.009.268-.013.294-.043.15-.066.31-.107.469-.123.23-.035.75-.139 1.154-.229.404-.09 1.379-.259 2.166-.374.786-.115 1.468-.261 1.515-.324.046-.064.095-.067.112-.01.038.148.406.128.44-.024.014-.069.057-.066.095.005.037.071.499.109 1.026.083 2-.078 3.98.098 5.895.524 1.02.239 2.992.868 3.14.999.021.022.05.035.083.035a.133.133 0 0 0 .088-.035c.042-.047.088-.041.102.015.015.056.281.203.594.328.61.237 1.33.562 1.537.68.07.04.415.217.761.399.89.458.948.492.904.542-.022.025-.806.125-1.744.225-3.406.359-7.671.933-7.775 1.05a.341.341 0 0 1-.12.079.313.313 0 0 1-.139.02c-.178-.023-.732.132-.819.23-.032.037.079.146.246.242.37.211.302.324-.24.409-.215.032-.488.08-.616.097a1.163 1.163 0 0 0-.45.219c-.178.145-.195.208-.075.315.18.159.156.19-.23.316-.23.074-.339.172-.463.416-.137.27-.127.355.066.546.24.236.327.492.1.291-.086-.076-.152-.06-.196.045-.044.104-.108.122-.174.064a.145.145 0 0 0-.057-.024.158.158 0 0 0-.064.002.174.174 0 0 0-.108.074c-.069.078-.069.12-.006.088.148-.08.451.327.4.536-.05.21.106.342.526.429.205.042.33.02.31-.057-.018-.076.056-.117.214-.099.134.016.188.05.118.074-.182.065-.017.177.19.13.1-.02.18-.084.18-.144.002-.06.033-.037.07.043.036.08.213.14.388.133.13-.013.26.001.381.042.034.03.48.009.99-.047.823-.091 1.47-.062 1.15.05-.18.064-.066.114.236.104a.615.615 0 0 0 .372-.124c.063-.07.132-.048.193.062.071.127.127.132.212.02a.192.192 0 0 1 .109-.08.165.165 0 0 1 .127.015c.363.266.366.268.329.072-.027-.143-.008-.14.086.017.095.156.24.187.639.142.327-.037.53-.115.553-.212.023-.098.043-.091.06.068.018.16.065.221.226.218a.529.529 0 0 0 .323-.132c.075-.085.105-.08.07.01-.065.162.48.167 2.63.024.26-.024.52-.033.777-.029a3.57 3.57 0 0 0 .565-.032c.345-.034.584-.118.66-.237.086-.134.137-.143.189-.033.025.044.063.08.108.102a.28.28 0 0 0 .15.029.989.989 0 0 1 .36.04.274.274 0 0 0 .153.005.312.312 0 0 0 .139-.075c.063-.071.126-.084.14-.027.014.056.112.041.216-.033.105-.074.208-.077.222-.011.014.066.078.07.143-.005.066-.074.131-.094.153-.054.021.04.224.047.44.026.216-.02.426-.024.455.001.082.073 1.679-.09 1.759-.18.039-.044.108-.006.153.085.072.145.086.125.103-.153l.02-.32.146.221c.177.271.304.27.386-.017.082-.286.23-.177.158.093-.041.158-.013.172.235.135a.582.582 0 0 1 .384.038c.056.049.22.03.365-.04.145-.072.288-.11.317-.084.029.026.14-.014.248-.09.134-.094.218-.09.269.02.05.107.096.11.172-.048.076-.158.13-.174.286-.036.104.091.214.138.246.102.032-.035.125-.013.207.05.217.16 1.107.243 1.223.112.14-.099.3-.165.464-.195a1.9 1.9 0 0 0 .461-.157c.37-.277.441-.366.456-.577.015-.247.238-.395.334-.22.096.177.815-.187.997-.489.1-.163.194-.24.243-.196.05.043.127-.016.184-.123a.396.396 0 0 1 .29-.198c.21-.003.749-.588 1-1.083l-.011.005Zm-2.776 1.678c-.074-.029-.074-.083-.001-.128a.346.346 0 0 1 .126-.04.314.314 0 0 1 .128.01c.074.03.074.084.002.13a.344.344 0 0 1-.127.04.312.312 0 0 1-.128-.012Zm-4.095.767a.101.101 0 0 1-.029-.073.12.12 0 0 1 .03-.077c.043-.048.09-.035.106.03.015.063.014.13-.002.149-.017.019-.065.008-.106-.029Zm-.759.71c-.065-.009-.083-.055-.041-.101a.119.119 0 0 1 .072-.04.101.101 0 0 1 .076.02c.04.035.06.08.042.1-.017.02-.086.029-.149.02Zm-1.968 0c-.066-.007-.084-.052-.042-.1a.119.119 0 0 1 .072-.04.101.101 0 0 1 .076.02c.04.036.06.081.041.102-.018.02-.084.03-.148.02v-.001Zm-1.64.077a.1.1 0 0 1-.03-.073.12.12 0 0 1 .103-.117.101.101 0 0 1 .077.02.101.101 0 0 1 .028.073.12.12 0 0 1-.03.077.119.119 0 0 1-.073.04.101.101 0 0 1-.076-.02Zm2.017-6.65c-2.203-1.409-3.453-2.162-3.722-2.245a2.44 2.44 0 0 1-.585-.316c-.18-.131-.887-.499-1.573-.815-1.687-.781-1.883-.879-1.883-.944 0-.03.687.223 1.528.565 2.17.882 3.73 1.739 6.335 3.486a42.1 42.1 0 0 0 1.33.867c.234.132.239.151.042.175-.143.017-.654-.25-1.476-.776l.004.003Zm-2.187.932a1.887 1.887 0 0 1-.589-.26c-.84-.535-2.358-1.416-2.588-1.5a8.142 8.142 0 0 1-.775-.384c-1.045-.575-3.614-1.656-4.27-1.797-.35-.075-.4-.11-.305-.218.04-.045.124-.041.185.013s.143.06.186.012c.042-.048.137-.03.213.038.202.118.422.206.654.26.285.075.556.158.607.185.051.027.628.253 1.278.513a34.094 34.094 0 0 1 5.018 2.595c.183.119.422.265.534.32.242.13.171.243-.135.208l-.013.015Zm2.523-3.465c-.074-.135-.06-.206.038-.215.1-.01.153.05.16.19.013.267-.058.275-.198.025Zm-2.694 2.73c-.035-.078-.002-.081.088-.01.09.072.108.123.06.129a.183.183 0 0 1-.148-.119Zm2.37-2.928c.029.115-.013.114-.147-.001-.133-.115-.178-.114-.15-.009.028.105-.002.15-.168.154-.166.005-.189-.016-.09-.129.147-.165.05-.259-.213-.204-.151.031-.205-.003-.22-.137-.014-.133-.151-.254-.523-.463a40.336 40.336 0 0 1-.702-.4c-.342-.204-1.116-.591-1.762-.88a6.72 6.72 0 0 1-.696-.342 2.144 2.144 0 0 0-.479-.178 1.434 1.434 0 0 1-.449-.18c-.024-.037-.417-.193-.874-.346l-1.489-.5a13.738 13.738 0 0 0-.935-.276 56.17 56.17 0 0 1-1.515-.395c-.583-.167-1.177-.3-1.78-.402a2.672 2.672 0 0 1-.599-.11 2.132 2.132 0 0 0-.543-.085c-.63-.047-.825-.168-.375-.229.188-.027.384-.013.434.031a.16.16 0 0 0 .086.04.18.18 0 0 0 .098-.014c.126-.076 3.188.247 3.47.37.202.066.415.102.633.107.224.007.447.049.498.093.139.123.782.347.902.315.058-.017.216.04.341.132.126.093.946.458 1.815.82 1.493.621 3.401 1.582 4.129 2.077.18.122.393.215.474.205.081-.01.011-.106-.27-.288-.42-.271-2.334-1.341-2.763-1.544-.128-.06-.19-.116-.139-.122.05-.007.355.115.673.277.318.161.724.36.904.441.39.18 1.73.953 1.88 1.087.059.052.053.113-.014.139-.186.065-.02.3.284.402.17.057.288.038.307-.048.019-.086.043-.09.065-.006a.135.135 0 0 1-.005.1.15.15 0 0 1-.07.074c-.061.02-.036.11.051.198.088.088.104.137.025.112-.117-.037-.133-.02-.101.115h.003Zm2.16-2.755c-.12-.022-.207-.062-.187-.085.02-.022.137-.02.26.003.122.024.209.061.188.084-.02.023-.137.021-.26-.002Zm-.78 1.054a.14.14 0 0 1-.05-.062.155.155 0 0 1-.01-.083.173.173 0 0 1 .1-.133c.123-.044.188.145.09.256a.105.105 0 0 1-.062.036.09.09 0 0 1-.067-.014Zm-5.283 5.5a.281.281 0 0 0-.102-.068.299.299 0 0 0-.124-.02c-.05.018-.208-.053-.35-.158a.935.935 0 0 0-.45-.189.585.585 0 0 1-.37-.194c-.324-.36-2.998-1.546-5.023-2.226-.994-.334-3.704-.93-4.08-.896a.372.372 0 0 1-.241-.082c-.202-.178 2.325.15 3.623.469 1.924.475 4.227 1.396 6.212 2.486 1.26.693 1.389.79 1.186.91a.287.287 0 0 1-.151.023.254.254 0 0 1-.135-.058l.005.003Zm3.172-4.17a.101.101 0 0 0-.076-.02.119.119 0 0 0-.073.04c-.042.047-.023.093.041.1.064.009.133-.001.149-.02.016-.017-.001-.064-.042-.1Zm-1.593 1.06c-.04-.036-.06-.082-.043-.101.017-.02.086-.029.15-.02.063.01.083.054.041.101a.119.119 0 0 1-.072.04.1.1 0 0 1-.076-.02ZM47.6 25.294c-.128-.013-.222-.045-.195-.076.054-.06.444-.106.5-.057.093.083-.082.16-.305.133Zm7.842-9.308c-.04-.036-.06-.08-.042-.1.017-.02.085-.03.148-.02.064.01.084.053.042.1a.12.12 0 0 1-.072.04.1.1 0 0 1-.076-.02Zm-1.756-.98c-.24-.212.233-.04.643.238l.41.277-.471-.207a3.41 3.41 0 0 1-.582-.307Zm1.53-.72c-.036-.076-.001-.08.089-.009.09.072.106.123.057.128a.18.18 0 0 1-.146-.119ZM52.688 16.7c-.035-.078 0-.08.088-.01.089.072.107.124.059.13a.184.184 0 0 1-.147-.12Zm2.08-2.618c-.04-.036-.059-.081-.04-.102.017-.02.084-.03.148-.02.064.01.084.053.041.1a.119.119 0 0 1-.072.04.1.1 0 0 1-.076-.02v.002Zm-9.696 10.673c-.195-.02-.072-.234.136-.238.165-.006.178.021.086.125a.326.326 0 0 1-.1.077.304.304 0 0 1-.119.032l-.003.004Zm6.917-10.57c-.059-.106.903.3 1.309.553.152.095-.069.03-.491-.144s-.773-.349-.818-.407v-.001Zm1.822-1.717c-.036-.078-.001-.082.088-.01.09.072.107.123.059.129a.185.185 0 0 1-.147-.12Zm-4.185.989c-.078-.07.028-.254.137-.24.066.008.073.074.01.145-.062.07-.126.113-.144.098l-.003-.003Zm-10.27 2.107c-.063-.056-.061-.12.006-.146a.22.22 0 0 1 .099-.014.198.198 0 0 1 .09.03.097.097 0 0 1 .028.072.107.107 0 0 1-.033.075c-.04.045-.127.04-.19-.017Zm4.04-4.928c-.065-.008-.083-.053-.041-.101a.119.119 0 0 1 .073-.04.1.1 0 0 1 .076.02c.04.036.059.081.041.1-.017.02-.084.03-.148.02Zm-25.311 13.5c-.103-.058-.157-.139-.118-.182.038-.043.156 0 .264.096.222.197.138.246-.146.086Zm-.786-4.908c-.068-.008-.055-.048.038-.103.175-.098.253-.079.147.04a.24.24 0 0 1-.087.053.22.22 0 0 1-.098.01Z" clip-rule="evenodd"/>
</svg>
